<svg width="31" height="27" viewBox="0 0 31 27" fill="none" xmlns="http://www.w3.org/2000/svg">
<g filter="url(#filter0_d_38_90)">
<path d="M26.853 2.50251C26.018 2.87251 25.121 3.12251 24.178 3.23551C25.151 2.6533 25.8789 1.73697 26.226 0.657507C25.3118 1.2005 24.3113 1.5827 23.268 1.78751C22.5664 1.03837 21.6371 0.541833 20.6243 0.374981C19.6116 0.208129 18.5721 0.380298 17.6672 0.864759C16.7624 1.34922 16.0428 2.11887 15.6202 3.05421C15.1975 3.98955 15.0955 5.03826 15.33 6.03751C13.4777 5.9445 11.6656 5.46306 10.0114 4.62441C8.35722 3.78577 6.89784 2.60867 5.728 1.16951C5.328 1.85951 5.098 2.65951 5.098 3.51151C5.09756 4.2785 5.28644 5.03375 5.64788 5.71024C6.00933 6.38673 6.53216 6.96354 7.17 7.38951C6.43028 7.36597 5.70688 7.16609 5.06 6.80651V6.86651C5.05993 7.94225 5.43204 8.98488 6.11319 9.8175C6.79434 10.6501 7.74257 11.2214 8.797 11.4345C8.11079 11.6202 7.39134 11.6476 6.693 11.5145C6.9905 12.4401 7.57 13.2495 8.35037 13.8294C9.13074 14.4093 10.0729 14.7307 11.045 14.7485C9.39484 16.0439 7.35689 16.7466 5.259 16.7435C4.88738 16.7436 4.51608 16.7219 4.147 16.6785C6.27648 18.0477 8.75534 18.7743 11.287 18.7715C19.857 18.7715 24.542 11.6735 24.542 5.51751C24.542 5.31751 24.537 5.11551 24.528 4.91551C25.4393 4.25648 26.2259 3.4404 26.851 2.50551L26.853 2.50251Z" fill="#1D1D1D"/>
</g>
<defs>
<filter id="filter0_d_38_90" x="0.147003" y="0.312988" width="30.706" height="26.4585" filterUnits="userSpaceOnUse" color-interpolation-filters="sRGB">
<feFlood flood-opacity="0" result="BackgroundImageFix"/>
<feColorMatrix in="SourceAlpha" type="matrix" values="0 0 0 0 0 0 0 0 0 0 0 0 0 0 0 0 0 0 127 0" result="hardAlpha"/>
<feOffset dy="4"/>
<feGaussianBlur stdDeviation="2"/>
<feComposite in2="hardAlpha" operator="out"/>
<feColorMatrix type="matrix" values="0 0 0 0 0 0 0 0 0 0 0 0 0 0 0 0 0 0 0.25 0"/>
<feBlend mode="normal" in2="BackgroundImageFix" result="effect1_dropShadow_38_90"/>
<feBlend mode="normal" in="SourceGraphic" in2="effect1_dropShadow_38_90" result="shape"/>
</filter>
</defs>
</svg>
